<?xml version="1.0" standalone="no"?>
<!DOCTYPE svg PUBLIC "-//W3C//DTD SVG 20010904//EN"
 "http://www.w3.org/TR/2001/REC-SVG-20010904/DTD/svg10.dtd">
<svg version="1.0" xmlns="http://www.w3.org/2000/svg"
 width="1026.000000pt" height="1280.000000pt" viewBox="0 0 1026.000000 1280.000000"
 preserveAspectRatio="xMidYMid meet">
<g transform="translate(0.000000,1280.000000) scale(0.100000,-0.100000)"
fill="#000000" stroke="none">
<path d="M5012 12784 c-183 -49 -326 -196 -363 -372 -6 -32 -9 -94 -7 -142 7
-109 52 -214 128 -295 103 -108 213 -156 360 -156 146 0 257 48 358 155 85 90
132 207 132 331 0 140 -46 251 -145 350 -121 121 -304 172 -463 129z"/>
<path d="M3336 12759 c-386 -41 -575 -141 -1471 -783 -432 -309 -711 -497
-965 -647 -265 -158 -330 -192 -586 -307 -256 -115 -308 -142 -312 -163 -6
-30 43 -83 104 -115 90 -46 203 -60 364 -45 211 21 306 48 522 149 297 139
836 468 1158 707 127 94 321 286 380 375 85 129 98 121 98 -54 1 -272 79 -465
261 -646 99 -99 193 -153 336 -195 81 -24 106 -27 243 -27 151 0 152 0 152
-22 0 -12 -13 -35 -30 -51 -80 -76 -60 -209 54 -369 142 -199 387 -346 627
-376 148 -18 342 14 469 77 l55 28 -3 145 c-6 366 -15 621 -22 625 -4 3 -42
-4 -83 -15 -246 -62 -451 -20 -580 120 -65 70 -104 147 -115 227 -13 99 -6
114 115 232 169 165 231 275 241 424 6 100 -11 182 -58 283 -47 101 -103 185
-166 246 -147 145 -450 213 -788 177z"/>
<path d="M6565 12759 c-38 -5 -110 -20 -159 -34 -215 -61 -332 -166 -436 -388
-47 -101 -64 -184 -58 -284 10 -149 72 -259 241 -424 121 -118 128 -133 115
-232 -11 -80 -50 -157 -115 -227 -129 -140 -334 -182 -580 -120 -41 11 -79 18
-83 15 -7 -4 -17 -271 -22 -615 l-3 -155 55 -28 c127 -63 321 -95 469 -77 240
30 485 177 627 376 114 160 134 293 54 369 -17 16 -30 39 -30 51 0 22 1 22
153 22 136 0 161 3 242 27 143 42 237 96 336 195 182 181 260 374 261 646 0
175 13 183 98 54 59 -89 253 -281 380 -375 322 -239 861 -568 1158 -707 216
-101 311 -128 522 -149 161 -15 274 -1 364 45 61 32 110 85 104 115 -4 21 -56
48 -312 163 -256 115 -321 149 -586 307 -254 150 -533 338 -965 647 -441 316
-591 418 -784 534 -252 151 -365 197 -581 234 -115 20 -369 28 -465 15z"/>
<path d="M4807 11733 c-3 -5 -1 -165 4 -358 4 -192 13 -539 19 -770 56 -2295
56 -2251 43 -2249 -34 6 -268 85 -358 121 -272 109 -445 234 -556 402 -74 112
-101 205 -107 374 -5 170 -1 179 66 116 60 -57 85 -73 161 -99 83 -28 216 -28
297 0 171 59 334 208 334 304 0 59 -98 128 -230 163 -81 21 -305 23 -405 4
-157 -30 -287 -99 -403 -213 -147 -145 -223 -320 -223 -515 1 -369 263 -707
779 -1001 l122 -69 -87 -64 c-185 -134 -354 -334 -429 -508 -100 -230 -110
-495 -28 -740 100 -300 293 -530 641 -764 51 -34 92 -65 93 -68 0 -3 -10 -11
-23 -16 -50 -23 -236 -172 -317 -253 -135 -137 -218 -274 -262 -439 -28 -103
-31 -311 -5 -428 71 -332 249 -627 517 -858 l90 -78 -53 -56 c-117 -124 -200
-271 -239 -423 -17 -68 -19 -103 -16 -217 5 -157 28 -240 101 -371 61 -108
273 -317 430 -422 l37 -25 -81 -73 c-203 -183 -289 -354 -289 -570 0 -103 20
-194 64 -295 29 -65 113 -189 156 -230 25 -24 30 -26 36 -12 3 9 -1 58 -10
109 -47 262 -47 353 3 462 35 77 51 99 132 182 63 64 216 180 225 171 6 -5 12
-220 34 -1202 7 -269 15 -548 18 -620 l7 -130 35 0 35 0 7 130 c3 72 11 351
18 620 22 982 28 1197 34 1202 9 9 162 -107 225 -171 81 -82 97 -104 134 -183
30 -65 32 -74 32 -188 0 -85 -7 -156 -24 -243 -13 -67 -20 -129 -17 -139 6
-14 11 -12 36 12 43 41 127 165 156 230 111 251 79 513 -88 722 -27 34 -86 97
-131 138 l-82 76 29 22 c214 162 371 318 433 427 73 130 96 214 101 371 3 114
1 149 -16 217 -39 152 -122 299 -239 423 l-53 56 99 86 c318 277 510 651 528
1027 12 253 -85 485 -288 691 -81 81 -266 229 -316 252 -13 6 -23 13 -23 16 0
3 21 19 48 36 106 67 292 215 382 305 340 340 449 817 280 1223 -72 174 -247
382 -433 516 l-87 64 122 69 c516 294 778 632 779 1001 0 341 -253 645 -602
723 -105 23 -342 24 -429 1 -132 -35 -230 -104 -230 -163 0 -96 163 -245 334
-304 81 -28 214 -28 297 0 76 26 101 42 161 99 67 63 71 54 66 -116 -6 -168
-32 -262 -107 -374 -51 -78 -155 -184 -231 -236 -80 -54 -232 -131 -350 -176
-96 -37 -303 -105 -334 -111 -4 0 -7 44 -7 99 2 130 40 1721 70 2920 5 192 7
353 5 357 -7 10 -641 10 -647 1z m112 -4800 c6 -313 14 -595 17 -627 l5 -59
-28 18 c-200 127 -330 271 -399 440 -26 64 -29 81 -29 195 0 114 3 131 28 198
49 124 163 255 307 351 41 27 78 50 81 50 3 1 11 -254 18 -566z m526 512 c109
-72 233 -204 279 -295 46 -92 60 -163 53 -280 -11 -229 -154 -429 -430 -605
l-28 -18 5 59 c3 32 11 314 18 627 6 312 14 567 16 567 3 0 42 -25 87 -55z
m-467 -2850 c5 -192 7 -352 6 -354 -2 -2 -39 22 -83 54 -93 67 -158 142 -207
240 -46 93 -64 164 -64 256 0 165 75 296 255 448 l70 59 7 -176 c4 -98 11
-334 16 -527z m444 602 c138 -121 208 -258 208 -406 0 -197 -108 -388 -289
-510 -34 -24 -64 -41 -65 -39 -2 3 9 494 20 856 l6 203 22 -18 c11 -10 56 -49
98 -86z m-404 -2275 c4 -144 5 -262 2 -262 -3 0 -18 17 -35 37 -109 136 -139
201 -140 303 0 94 26 151 104 230 l56 55 3 -50 c1 -27 6 -168 10 -313z m311
292 c65 -74 86 -127 86 -214 0 -61 -5 -86 -28 -135 -27 -57 -132 -205 -146
-205 -3 0 -3 96 0 212 4 117 7 257 8 311 1 93 2 97 20 88 10 -6 37 -31 60 -57z"/>
<path d="M2437 11676 c-15 -9 -103 -80 -195 -159 -500 -432 -849 -670 -1252
-853 -150 -69 -169 -88 -136 -139 24 -37 69 -53 183 -66 188 -21 361 13 550
110 235 120 462 264 718 456 205 155 298 236 319 279 l17 36 -39 88 c-35 76
-52 126 -82 232 -8 30 -43 37 -83 16z"/>
<path d="M7740 11664 c-6 -14 -10 -31 -10 -38 0 -21 -36 -120 -75 -206 -36
-80 -36 -80 -19 -116 39 -81 477 -412 802 -605 356 -212 538 -267 785 -240
114 13 159 29 183 66 34 51 15 70 -138 140 -399 182 -737 412 -1242 845 -104
89 -200 166 -213 171 -41 15 -63 11 -73 -17z"/>
<path d="M2660 11213 c-8 -4 -82 -71 -165 -151 -288 -279 -490 -431 -828 -626
l-118 -69 3 -35 c3 -33 7 -37 48 -50 62 -19 259 -21 340 -3 142 31 312 115
493 245 89 63 434 347 495 406 53 53 42 80 -53 135 -36 21 -90 65 -120 97 -53
57 -64 62 -95 51z"/>
<path d="M7506 11163 c-31 -33 -85 -77 -121 -98 -95 -55 -106 -82 -52 -135 60
-59 405 -343 494 -406 184 -132 349 -214 493 -245 81 -18 278 -16 340 3 41 13
45 17 48 50 l3 35 -118 69 c-341 197 -541 348 -829 627 -83 81 -162 149 -177
152 -22 6 -33 -1 -81 -52z"/>
<path d="M3044 10947 c-12 -7 -56 -54 -99 -105 -110 -132 -287 -308 -452 -450
-79 -68 -148 -132 -154 -143 -16 -30 11 -64 67 -83 58 -19 120 -20 197 -1 300
71 815 526 795 701 -3 29 -4 29 -98 42 -84 11 -176 30 -220 46 -8 3 -24 0 -36
-7z"/>
<path d="M7150 10946 c-35 -13 -125 -30 -230 -44 -51 -7 -55 -9 -58 -36 -20
-175 495 -630 795 -701 77 -19 139 -18 197 1 56 19 83 53 67 83 -6 11 -75 75
-154 143 -165 142 -342 318 -452 450 -68 81 -108 118 -125 117 -3 0 -21 -6
-40 -13z"/>
</g>
</svg>
