<svg xmlns="http://www.w3.org/2000/svg" version="1.1" xmlns:xlink="http://www.w3.org/1999/xlink" xmlns:svgjs="http://svgjs.dev/svgjs" width="1000" height="1000" viewBox="0 0 1000 1000"><rect width="1000" height="1000" fill="#22aad4"></rect><g transform="matrix(0.7,0,0,0.7,149.57575757575756,282.1265587044535)"><svg viewBox="0 0 396 247" data-background-color="#22aad4" preserveAspectRatio="xMidYMid meet" height="623" width="1000" xmlns="http://www.w3.org/2000/svg" xmlns:xlink="http://www.w3.org/1999/xlink"><g id="tight-bounds" transform="matrix(1,0,0,1,0.2400000000000091,-0.09999999999999432)"><svg viewBox="0 0 395.52 247.2" height="247.2" width="395.52"><g><svg></svg></g><g><svg viewBox="0 0 395.52 247.2" height="247.2" width="395.52"><g transform="matrix(1,0,0,1,39.55199999999999,107.45632653061224)"><svg viewBox="0 0 316.416 32.28734693877551" height="32.28734693877551" width="316.416"><g><svg viewBox="0 0 316.416 32.28734693877551" height="32.28734693877551" width="316.416"><g><svg viewBox="0 0 316.416 32.28734693877551" height="32.28734693877551" width="316.416"><g id="textblocktransform"><svg viewBox="0 0 316.416 32.28734693877551" height="32.28734693877551" width="316.416" id="textblock"><g><svg viewBox="0 0 316.416 32.28734693877551" height="32.28734693877551" width="316.416"><g transform="matrix(1,0,0,1,0,0)"><svg width="316.416" viewBox="4.949999809265137 -37.099998474121094 367.4700012207031 37.5" height="32.28734693877551" data-palette-color="#ffffff"><path d="M49.55-35L54.55-35 54.55-13.95Q54.55-6.85 51.03-3.23 47.5 0.4 40.95 0.4L40.95 0.4Q37.1 0.4 34.18-0.98 31.25-2.35 29.7-4.75L29.7-4.75Q28.1-2.35 25.25-0.98 22.4 0.4 18.5 0.4L18.5 0.4Q11.95 0.4 8.45-3.23 4.95-6.85 4.95-13.95L4.95-13.95 4.95-35 9.95-35 9.95-14.1Q9.95-4.05 18.5-4.05L18.5-4.05Q22.65-4.05 24.95-6.5 27.25-8.95 27.25-14.1L27.25-14.1 27.25-35 32.25-35 32.25-14.1Q32.25-8.95 34.52-6.5 36.8-4.05 40.95-4.05L40.95-4.05Q49.55-4.05 49.55-14.1L49.55-14.1 49.55-35ZM76-3.9Q80.75-3.9 83.65-7.1L83.65-7.1 86.25-4Q84.5-1.9 81.82-0.8 79.15 0.3 75.85 0.3L75.85 0.3Q71.65 0.3 68.4-1.43 65.15-3.15 63.37-6.25 61.6-9.35 61.6-13.25L61.6-13.25Q61.6-17.1 63.32-20.2 65.05-23.3 68.07-25.03 71.1-26.75 74.9-26.75L74.9-26.75Q78.5-26.75 81.45-25.13 84.4-23.5 86.15-20.55 87.9-17.6 87.95-13.75L87.95-13.75 66.9-9.65Q67.9-6.9 70.27-5.4 72.65-3.9 76-3.9L76-3.9ZM74.9-22.7Q72.4-22.7 70.42-21.55 68.45-20.4 67.35-18.32 66.25-16.25 66.25-13.5L66.25-13.5 66.25-13 83.2-16.2Q82.55-19.1 80.3-20.9 78.05-22.7 74.9-22.7L74.9-22.7ZM102.69 0.3Q98.84 0.3 96.75-1.83 94.64-3.95 94.64-7.8L94.64-7.8 94.64-37.1 99.44-37.1 99.44-8.2Q99.44-6.05 100.47-4.9 101.5-3.75 103.55-3.75L103.55-3.75Q104.8-3.75 105.89-4.25L105.89-4.25 106.14-0.3Q104.5 0.3 102.69 0.3L102.69 0.3ZM118.74 0.3Q114.89 0.3 112.79-1.83 110.69-3.95 110.69-7.8L110.69-7.8 110.69-37.1 115.49-37.1 115.49-8.2Q115.49-6.05 116.52-4.9 117.54-3.75 119.59-3.75L119.59-3.75Q120.84-3.75 121.94-4.25L121.94-4.25 122.19-0.3Q120.54 0.3 118.74 0.3L118.74 0.3ZM140.89-26.75Q145.94-26.75 148.91-23.83 151.89-20.9 151.89-15.25L151.89-15.25 151.89 0 147.09 0 147.09-14.7Q147.09-18.55 145.24-20.5 143.39-22.45 139.94-22.45L139.94-22.45Q136.04-22.45 133.79-20.18 131.54-17.9 131.54-13.65L131.54-13.65 131.54 0 126.74 0 126.74-26.5 131.34-26.5 131.34-22.5Q132.79-24.55 135.26-25.65 137.74-26.75 140.89-26.75L140.89-26.75ZM172.89-3.9Q177.64-3.9 180.54-7.1L180.54-7.1 183.14-4Q181.39-1.9 178.71-0.8 176.04 0.3 172.74 0.3L172.74 0.3Q168.54 0.3 165.29-1.43 162.04-3.15 160.26-6.25 158.49-9.35 158.49-13.25L158.49-13.25Q158.49-17.1 160.21-20.2 161.94-23.3 164.96-25.03 167.99-26.75 171.79-26.75L171.79-26.75Q175.39-26.75 178.34-25.13 181.29-23.5 183.04-20.55 184.79-17.6 184.84-13.75L184.84-13.75 163.79-9.65Q164.79-6.9 167.16-5.4 169.54-3.9 172.89-3.9L172.89-3.9ZM171.79-22.7Q169.29-22.7 167.31-21.55 165.34-20.4 164.24-18.32 163.14-16.25 163.14-13.5L163.14-13.5 163.14-13 180.09-16.2Q179.44-19.1 177.19-20.9 174.94-22.7 171.79-22.7L171.79-22.7ZM199.14 0.3Q195.89 0.3 192.89-0.58 189.89-1.45 188.19-2.8L188.19-2.8 190.19-6.6Q191.94-5.35 194.44-4.6 196.94-3.85 199.49-3.85L199.49-3.85Q205.79-3.85 205.79-7.45L205.79-7.45Q205.79-8.65 204.94-9.35 204.09-10.05 202.81-10.38 201.54-10.7 199.19-11.1L199.19-11.1Q195.99-11.6 193.96-12.25 191.94-12.9 190.49-14.45 189.04-16 189.04-18.8L189.04-18.8Q189.04-22.4 192.04-24.58 195.04-26.75 200.09-26.75L200.09-26.75Q202.74-26.75 205.39-26.1 208.04-25.45 209.74-24.35L209.74-24.35 207.69-20.55Q204.44-22.65 200.04-22.65L200.04-22.65Q196.99-22.65 195.39-21.65 193.79-20.65 193.79-19L193.79-19Q193.79-17.7 194.69-16.95 195.59-16.2 196.91-15.85 198.24-15.5 200.64-15.05L200.64-15.05Q203.84-14.5 205.81-13.88 207.79-13.25 209.19-11.75 210.59-10.25 210.59-7.55L210.59-7.55Q210.59-3.95 207.51-1.83 204.44 0.3 199.14 0.3L199.14 0.3ZM224.18 0.3Q220.93 0.3 217.93-0.58 214.93-1.45 213.23-2.8L213.23-2.8 215.23-6.6Q216.98-5.35 219.48-4.6 221.98-3.85 224.53-3.85L224.53-3.85Q230.83-3.85 230.83-7.45L230.83-7.45Q230.83-8.65 229.98-9.35 229.13-10.05 227.86-10.38 226.58-10.7 224.23-11.1L224.23-11.1Q221.03-11.6 219.01-12.25 216.98-12.9 215.53-14.45 214.08-16 214.08-18.8L214.08-18.8Q214.08-22.4 217.08-24.58 220.08-26.75 225.13-26.75L225.13-26.75Q227.78-26.75 230.43-26.1 233.08-25.45 234.78-24.35L234.78-24.35 232.73-20.55Q229.48-22.65 225.08-22.65L225.08-22.65Q222.03-22.65 220.43-21.65 218.83-20.65 218.83-19L218.83-19Q218.83-17.7 219.73-16.95 220.63-16.2 221.96-15.85 223.28-15.5 225.68-15.05L225.68-15.05Q228.88-14.5 230.86-13.88 232.83-13.25 234.23-11.75 235.63-10.25 235.63-7.55L235.63-7.55Q235.63-3.95 232.56-1.83 229.48 0.3 224.18 0.3L224.18 0.3ZM267.73-35L272.73-35 257.38 0 252.43 0 237.03-35 242.43-35 255.03-6.25 267.73-35ZM294.68-26.5L299.48-26.5 299.48 0 294.88 0 294.88-4.2Q293.28-2 290.83-0.85 288.38 0.3 285.43 0.3L285.43 0.3Q281.58 0.3 278.53-1.4 275.48-3.1 273.75-6.18 272.03-9.25 272.03-13.25L272.03-13.25Q272.03-17.25 273.75-20.3 275.48-23.35 278.53-25.05 281.58-26.75 285.43-26.75L285.43-26.75Q288.28-26.75 290.68-25.68 293.08-24.6 294.68-22.5L294.68-22.5 294.68-26.5ZM285.83-3.9Q288.33-3.9 290.38-5.08 292.43-6.25 293.58-8.38 294.73-10.5 294.73-13.25L294.73-13.25Q294.73-16 293.58-18.13 292.43-20.25 290.38-21.4 288.33-22.55 285.83-22.55L285.83-22.55Q283.28-22.55 281.25-21.4 279.23-20.25 278.05-18.13 276.88-16 276.88-13.25L276.88-13.25Q276.88-10.5 278.05-8.38 279.23-6.25 281.25-5.08 283.28-3.9 285.83-3.9L285.83-3.9ZM328.48-26.5L333.28-26.5 333.28 0 328.73 0 328.73-4Q327.28-1.95 324.9-0.83 322.53 0.3 319.73 0.3L319.73 0.3Q314.43 0.3 311.38-2.63 308.33-5.55 308.33-11.25L308.33-11.25 308.33-26.5 313.13-26.5 313.13-11.8Q313.13-7.95 314.98-5.98 316.83-4 320.28-4L320.28-4Q324.08-4 326.28-6.3 328.48-8.6 328.48-12.8L328.48-12.8 328.48-26.5ZM350.47 0.3Q346.62 0.3 344.52-1.83 342.42-3.95 342.42-7.8L342.42-7.8 342.42-37.1 347.22-37.1 347.22-8.2Q347.22-6.05 348.25-4.9 349.27-3.75 351.32-3.75L351.32-3.75Q352.57-3.75 353.67-4.25L353.67-4.25 353.92-0.3Q352.27 0.3 350.47 0.3L350.47 0.3ZM370.92-5L372.42-1.55Q371.37-0.65 369.82-0.18 368.27 0.3 366.62 0.3L366.62 0.3Q362.62 0.3 360.42-1.85 358.22-4 358.22-8L358.22-8 358.22-32.3 363.02-32.3 363.02-26.5 370.62-26.5 370.62-22.55 363.02-22.55 363.02-8.2Q363.02-6.05 364.1-4.9 365.17-3.75 367.17-3.75L367.17-3.75Q369.37-3.75 370.92-5L370.92-5Z" opacity="1" transform="matrix(1,0,0,1,0,0)" fill="#ffffff" class="undefined-text-0" data-fill-palette-color="primary" id="text-0"></path></svg></g></svg></g></svg></g></svg></g></svg></g></svg></g><g mask="url(#36bac094-9b7e-40cb-b115-3eaedad002a5)"><g transform="matrix(2.6222636816833735, 0, 0, 2.6222636816833735, 91.92019456029786, 1)"><svg xmlns="http://www.w3.org/2000/svg" xmlns:xlink="http://www.w3.org/1999/xlink" version="1.1" x="0" y="0" viewBox="9.63800048828125 3.246999979019165 80.7239990234375 93.50699615478516" enable-background="new 0 0 100 100" xml:space="preserve" height="93.50699615478516" width="80.7239990234375" class="icon-none" data-fill-palette-color="accent" id="none"><g fill="#ffffff" data-fill-palette-color="accent"><g fill="#ffffff" data-fill-palette-color="accent"><polygon points="36.703,11.011 9.638,26.636 9.638,38.757 36.703,23.131 63.767,38.757 63.767,26.636   " fill="#ffffff" data-fill-palette-color="accent"></polygon></g><g fill="#ffffff" data-fill-palette-color="accent"><polygon points="63.298,89.092 36.233,73.467 36.233,61.348 63.298,76.973 90.362,61.348 90.362,73.467   " fill="#ffffff" data-fill-palette-color="accent"></polygon></g><g fill="#ffffff" data-fill-palette-color="accent"><polygon points="9.638,42.012 36.703,26.386 47.198,32.446 20.134,48.072 20.134,79.324 9.638,73.264   " fill="#ffffff" data-fill-palette-color="accent"></polygon></g><g fill="#ffffff" data-fill-palette-color="accent"><polygon points="77.083,18.872 50.018,3.247 39.522,9.307 66.586,24.932 66.586,56.184 77.083,50.124   " fill="#ffffff" data-fill-palette-color="accent"></polygon></g><g fill="#ffffff" data-fill-palette-color="accent"><polygon points="23.01,81.127 23.011,49.876 33.507,43.816 33.507,75.068 60.571,90.693 50.075,96.754   " fill="#ffffff" data-fill-palette-color="accent"></polygon></g><g fill="#ffffff" data-fill-palette-color="accent"><polygon points="90.362,58.092 90.362,26.84 79.866,20.78 79.866,52.031 52.802,67.658 63.298,73.719   " fill="#ffffff" data-fill-palette-color="accent"></polygon></g></g></svg></g></g></svg></g><defs><mask id="36bac094-9b7e-40cb-b115-3eaedad002a5"><rect width="640" height="400" fill="white"></rect><rect width="348.05760000000004" height="47.53188237061224" fill="black" y="99.83405881469388" x="23.731199999999973" id="transform-me"></rect></mask></defs></svg><rect width="395.52" height="247.2" fill="none" stroke="none" visibility="hidden"></rect></g></svg></g></svg>